<svg xmlns="http://www.w3.org/2000/svg" width="153" height="74" viewBox="0 0 153 74"><path fill="#495867" d="M30.90 73.00L5.40 2.20L16.30 2.20L34 57.10L30.90 73.00ZM51.10 0L52 0L53.10 8.70L34 61.90Q34 61.90 33.45 63.65Q32.90 65.40 32.40 67.90Q31.90 70.40 31.80 73.00L31.80 73.00L30.90 73.00L28.70 63.10L51.10 0ZM47.40 14.00L52 0.10L73.30 55.60L70.20 73.00L47.40 14.00ZM85.90 2.20L91.90 2.20L73.20 61.90Q73.20 61.90 72.70 63.70Q72.20 65.50 71.70 68.05Q71.20 70.60 71.20 73.00L71.20 73.00L70.20 73.00L68.50 63.10L85.90 2.20ZM89.80 8.80L84 8.80Q84.80 5.80 83.50 4.20Q82.20 2.60 80.20 2.60L80.20 2.60L79.30 2.60L79.30 1.60L99.40 1.60L99.40 2.60Q99.40 2.60 99 2.60Q98.60 2.60 98.60 2.60L98.60 2.60Q96.30 2.60 93.60 4.05Q90.90 5.50 89.80 8.80L89.80 8.80ZM18.50 8.80L18.50 8.80L7.80 8.80Q6.60 5.50 3.95 4.05Q1.30 2.60-1 2.60L-1 2.60Q-1 2.60-1.40 2.60Q-1.80 2.60-1.80 2.60L-1.80 2.60L-1.80 1.60L23.20 1.60L23.20 2.60L22.30 2.60Q20.40 2.60 18.95 4.20Q17.50 5.80 18.50 8.80ZM135.90 1.60L145.20 1.60L145.20 71.60L135.90 71.60L135.90 1.60ZM135.90 64.30L136.20 64.30L136.20 71.60L128.20 71.60L128.20 70.60Q128.20 70.60 128.85 70.60Q129.50 70.60 129.50 70.60L129.50 70.60Q132.10 70.60 133.95 68.75Q135.80 66.90 135.90 64.30L135.90 64.30ZM136.20 1.60L136.20 8.90L135.90 8.90Q135.80 6.30 133.95 4.45Q132.10 2.60 129.50 2.60L129.50 2.60Q129.50 2.60 128.85 2.60Q128.20 2.60 128.20 2.60L128.20 2.60L128.20 1.60L136.20 1.60ZM144.90 71.60L144.90 64.30L145.20 64.30Q145.30 66.90 147.15 68.75Q149 70.60 151.60 70.60L151.60 70.60Q151.60 70.60 152.20 70.60Q152.80 70.60 152.90 70.60L152.90 70.60L152.90 71.60L144.90 71.60ZM145.20 8.90L144.90 8.90L144.90 1.60L152.90 1.60L152.90 2.60Q152.80 2.60 152.20 2.60Q151.60 2.60 151.60 2.60L151.60 2.60Q149 2.60 147.15 4.45Q145.30 6.30 145.20 8.90L145.20 8.90Z"></path></svg>